<svg version="1.0" xmlns="http://www.w3.org/2000/svg"
 width="278.000000pt" height="361.000000pt" viewBox="0 0 278.000000 361.000000"
 preserveAspectRatio="xMidYMid meet">

<g transform="translate(0.000000,361.000000) scale(0.100000,-0.100000)"
fill="#fff" stroke="none">
<path d="M1349 3597 c-13 -10 -1284 -1658 -1332 -1727 -25 -36 -22 -75 9 -99
15 -12 31 -21 37 -21 5 0 209 79 453 175 244 96 445 175 448 175 4 0 6 -461 6
-1025 0 -1012 0 -1025 20 -1045 19 -19 33 -20 400 -20 367 0 381 1 400 20 20
20 20 33 20 1045 0 564 2 1025 6 1025 3 0 204 -79 448 -175 244 -96 448 -175
453 -175 6 0 22 9 37 21 31 24 34 63 9 99 -47 68 -1317 1717 -1331 1728 -20
15 -62 15 -83 -1z"/>
</g>
</svg>